<svg height="512" viewBox="0 0 58 58" width="512" xmlns="http://www.w3.org/2000/svg"><g id="Page-1" fill="none" fill-rule="evenodd"><g id="075---Affiliate-Links"><path id="Path" d="m3.37 40.52c-.85819181-.5498596-1.37515969-1.5007786-1.37-2.52l-.01-11c0-4.9705627 4.02943725-9 9-9h6.01c4.9705627 0 9 4.0294373 9 9v11c.0000702.7955351-.3165773 1.5583676-.88 2.12-.1495756.1493511-.3137274.2833526-.49.4z" fill="#f0c419"/><path id="Path" d="m33.38 40.52c-.8581918-.5498596-1.3751597-1.5007786-1.37-2.52l-.01-11c0-4.9705627 4.0294373-9 9-9h6.01c4.9705627 0 9 4.0294373 9 9v11c.0000702.7955351-.3165773 1.5583676-.88 2.12-.1495756.1493511-.3137274.2833526-.49.4z" fill="#f0c419"/><g fill="#f29c1f"><path id="Path" d="m7.992 40.743c-.04113988.0003241-.0822487-.0023496-.123-.008-.54686783-.0681664-.93550634-.5659278-.869-1.113.00199804-.0353051.00199804-.0706949 0-.106v-12.516c0-.5522847.44771525-1 1-1s1 .4477153 1 1v12.516c.00183152.116245-.00384697.232487-.017.348-.06108728.5011499-.48614145.8781656-.991.879z"/><path id="Path" d="m20.01 40.76c-.5289512.0010176-.9672059-.4100654-1-.938-.009-.1-.011-.2-.011-.306v-12.516c0-.5522847.4477153-1 1-1s1 .4477153 1 1v12.516c-.0019984.0393079-.0019984.0786921 0 .118.0051543.0401303.007826.0805405.008.121.001329.2655626-.1030291.5207476-.2900608.70928-.1870316.1885324-.4413744.2949266-.7069392.29572z"/><path id="Path" d="m38 40.743c-.0408068.0002932-.0815809-.0023805-.122-.008-.5480804-.0666605-.9384284-.5648914-.872-1.113.0024967-.0352892.0024967-.0707108 0-.106v-12.516c0-.5522847.4477153-1 1-1s1 .4477153 1 1v12.516c.0018315.116245-.003847.232487-.017.348-.0609926.5003955-.4849044.8771584-.989.879z"/><path id="Path" d="m50.02 40.76c-.5289512.0010176-.9672059-.4100654-1-.938-.009-.1-.011-.2-.011-.306v-12.516c0-.5522847.4477153-1 1-1s1 .4477153 1 1v12.516c-.0019984.0393079-.0019984.0786921 0 .118.0051543.0401303.007826.0805405.008.121.001329.2655626-.1030291.5207476-.2900608.70928-.1870316.1885324-.4413744.2949266-.7069392.29572z"/></g><path id="Path" d="m23.19 45c-1.0684285-1.8567699-3.0477738-3.0009001-5.19-3h-8c-3.31370843.0000001-5.99999982 2.6862916-5.99999982 6s2.68629139 5.9999999 5.99999982 6h8c2.1422262.0009001 4.1215715-1.1432301 5.19-3h4.35c-1.3126849 4.16447-5.1735432 6.9973849-9.54 7h-8c-5.5228475 0-10-4.4771525-10-10s4.4771525-10 10-10h8c4.3662472.0032542 8.2267684 2.8359217 9.54 7z" fill="#84b5cb"/><path id="Path" d="m34.81 45c1.0684285-1.8567699 3.0477738-3.0009001 5.19-3h8c3.3137084.0000001 5.9999998 2.6862916 5.9999998 6s-2.6862914 5.9999999-5.9999998 6h-8c-2.1422262.0009001-4.1215715-1.1432301-5.19-3h-4.35c1.3132316 4.1640783 5.1737528 6.9967458 9.54 7h8c5.5228475 0 10-4.4771525 10-10s-4.4771525-10-10-10h-8c-4.3664568.0026151-8.2273151 2.83553-9.54 7z" fill="#84b5cb"/><rect id="Rectangle" fill="#9fc9d3" height="6" rx="3" width="18" x="20" y="45"/><circle id="Oval" cx="13.997" cy="9" fill="#fdd7ad" r="9"/><circle id="Oval" cx="44.007" cy="9" fill="#fdd7ad" r="9"/></g></g></svg>