<svg id="Capa_1" enable-background="new 0 0 512 512" height="512" viewBox="0 0 512 512" width="512" xmlns="http://www.w3.org/2000/svg"><path d="m467.427 18.989h-422.854c-24.617 0-44.573 19.956-44.573 44.572v298.819c0 24.617 19.956 44.573 44.573 44.573h422.855c24.617 0 44.573-19.956 44.573-44.573v-298.819c-.001-24.616-19.957-44.572-44.574-44.572z" fill="#32b9c7"/><path d="m415.58 493.011-46.113-32.22-46.113 32.22v-127.265h92.226z" fill="#d63030"/><path d="m470.793 316.813v-207.684c-27.025 0-48.934-21.908-48.934-48.934h-331.718c0 27.025-21.908 48.934-48.934 48.934 0 0 0 0-.001 0v207.683h.001c27.025 0 48.934 21.908 48.934 48.934h331.718c0-27.025 21.908-48.933 48.934-48.933z" fill="#e5ecf1"/><circle cx="369.467" cy="359.63" fill="#fa9801" r="75.379"/><circle cx="369.467" cy="359.63" fill="#fcb143" r="47.323"/><path d="m369.467 414.679c-30.354 0-55.049-24.695-55.049-55.049s24.695-55.049 55.049-55.049 55.049 24.695 55.049 55.049-24.695 55.049-55.049 55.049zm0-94.645c-21.834 0-39.597 17.763-39.597 39.596 0 21.834 17.763 39.597 39.597 39.597s39.596-17.763 39.596-39.597-17.762-39.596-39.596-39.596z" fill="#fdcb82"/><path d="m276.695 127.776c-4.361-3.786-10.046-6.102-15.047-7.972v-16.385c4.065.338 6.554 1.628 8.559 2.667 1.588.822 2.958 1.533 4.626 1.533 2.832 0 4.563-1.945 5.516-3.577 1.231-2.108 1.668-4.486 1.668-5.883 0-3.502-2.565-6.17-7.625-7.931-4.57-1.591-9.895-1.995-12.743-2.094v-2.72c0-1.645-2.164-3.201-4.453-3.201-2.456 0-4.454 1.436-4.454 3.201v3.074c-6.471.934-11.953 3.279-15.859 6.787-4.577 4.111-6.898 9.637-6.898 16.425 0 14.831 12.596 19.664 22.758 23.53v18.192c-4.4-.811-7.505-3.033-10.247-4.996-2.378-1.702-4.431-3.172-6.693-3.172-4.488 0-7.866 5.877-7.866 9.688 0 3.562 2.677 7.231 7.344 10.067 4.763 2.894 10.96 4.614 17.462 4.85v2.721c0 1.765 1.998 3.201 4.454 3.201 2.289 0 4.453-1.556 4.453-3.201v-3.191c6.713-1.109 12.301-3.855 16.166-7.943 4.148-4.387 6.251-10.098 6.251-16.972-.002-6.932-2.413-12.393-7.372-16.698zm-9.502 18.517c0 4.415-3.596 6.247-6.683 7.006v-14.881c4.619 2.219 6.683 4.653 6.683 7.875zm-13.313-42.514v13.189c-4.922-2.1-7.025-4.192-7.025-6.974 0-3.023 2.558-5.282 7.025-6.215z" fill="#13b766"/><g fill="#3c5959"><path d="m430.885 205.719h-342.329c-4.267 0-7.726-3.459-7.726-7.726s3.459-7.726 7.726-7.726h342.329c4.267 0 7.726 3.459 7.726 7.726s-3.459 7.726-7.726 7.726z"/><path d="m430.887 242.29h-342.336c-4.267 0-7.726-3.459-7.726-7.726s3.459-7.726 7.726-7.726h342.336c4.267 0 7.726 3.459 7.726 7.726.001 4.267-3.459 7.726-7.726 7.726z"/><path d="m245.623 278.856h-157.072c-4.267 0-7.726-3.459-7.726-7.726s3.459-7.726 7.726-7.726h157.072c4.267 0 7.726 3.459 7.726 7.726s-3.459 7.726-7.726 7.726z"/></g></svg>